<svg viewBox="57 122 188 44" fill="none" xmlns="http://www.w3.org/2000/svg" class="h-8 md:h-10 text-petfolk-dark"><path fill-rule="evenodd" clip-rule="evenodd" d="M72.3649 131.914C72.3668 131.783 72.3937 131.653 72.4475 131.531C72.5013 131.41 72.5744 131.301 72.6686 131.21C72.7628 131.118 72.8743 131.047 72.9954 130.999C73.1165 130.951 73.2472 130.926 73.3798 130.928H73.5009C77.7684 130.928 80.6692 133.127 81.4016 137.427C82.976 146.685 77.0034 148.605 73.8854 148.605C73.0992 148.605 72.3437 148.53 72.3456 147.759L72.3668 131.916L72.3649 131.914ZM73.6067 151.398C81.8553 151.398 91.7724 149.153 91.7724 139.428C91.7724 133.83 87.5741 127.956 75.3656 127.956H58.9337C58.6723 127.952 58.4205 128.052 58.2321 128.231C58.0418 128.41 57.9303 128.658 57.9207 128.919L57.913 129.263C57.9091 129.509 57.9957 129.749 58.1571 129.934C58.3186 130.12 58.5435 130.24 58.7876 130.268C61.5442 130.628 61.8422 131.201 61.846 133.69V159.165C61.798 161.664 61.6 162.233 58.7896 162.592C58.5493 162.619 58.3263 162.734 58.1648 162.913C58.0033 163.092 57.9111 163.326 57.9072 163.569V163.911C57.9072 164.041 57.9361 164.172 57.988 164.293C58.0399 164.414 58.1148 164.524 58.209 164.616C58.3032 164.708 58.4147 164.78 58.5358 164.83C58.6569 164.88 58.7876 164.903 58.9184 164.901H77.6877C77.8184 164.903 77.9491 164.88 78.0722 164.83C78.1933 164.781 78.3048 164.708 78.399 164.618C78.4932 164.526 78.5681 164.416 78.62 164.297C78.6719 164.176 78.7008 164.047 78.7027 163.915V163.626C78.6988 163.371 78.5989 163.126 78.422 162.944C78.2452 162.761 78.0049 162.652 77.7511 162.64C73.697 162.371 72.3514 161.602 72.3379 159.007L72.3456 152.352C72.3476 151.9 72.4917 151.398 73.6105 151.398H73.6067Z" fill="#1E3638"></path><path fill-rule="evenodd" clip-rule="evenodd" d="M173.538 163.576C170.081 163.576 168.786 157.817 168.786 149.001C168.786 142.168 169.812 138.023 173.053 138.023C176.563 138.023 177.805 143.782 177.805 152.598C177.805 159.432 176.78 163.576 173.538 163.576ZM173.322 135.757C164.464 135.757 158.199 142.321 158.199 151.36C158.199 160.399 164.357 165.835 173.268 165.835C182.18 165.835 188.393 159.27 188.393 150.232C188.393 141.193 182.238 135.757 173.322 135.757Z" fill="#1E3638"></path><path fill-rule="evenodd" clip-rule="evenodd" d="M243.73 157.721C243.481 157.575 243.188 157.517 242.902 157.561C242.615 157.604 242.352 157.744 242.156 157.959C241.06 159.284 240.309 159.849 239.311 159.849C238.067 159.849 237.216 159.349 235.761 157.554L227.314 146.893C227.137 146.679 227.043 146.406 227.053 146.129C227.062 145.851 227.174 145.587 227.364 145.385C227.364 145.385 229.707 142.533 232.887 142.533C235.24 142.533 236.706 143.828 237.323 145.174C237.368 145.276 237.441 145.36 237.533 145.422C237.625 145.483 237.733 145.514 237.844 145.516C238.192 145.516 238.832 145.236 239.04 145.124C239.788 144.705 240.411 144.094 240.843 143.354C241.276 142.613 241.502 141.77 241.499 140.91C241.499 137.89 239.153 136.095 236.007 136.095C229.469 136.095 223.777 144.084 221.418 147.884C221.366 147.969 221.289 148.032 221.197 148.069C221.105 148.104 221.005 148.109 220.911 148.082C220.817 148.056 220.734 147.998 220.674 147.919C220.615 147.84 220.584 147.744 220.584 147.646V123.971C220.58 123.706 220.471 123.452 220.28 123.267C220.09 123.083 219.834 122.981 219.569 122.983H219.021C218.946 122.983 218.871 122.991 218.798 123.008L208.412 125.286C208.191 125.332 207.991 125.453 207.847 125.628C207.703 125.803 207.624 126.022 207.622 126.249V126.474C207.622 126.655 207.674 126.833 207.768 126.987C207.862 127.141 207.999 127.268 208.16 127.348L210.046 128.302C210.207 128.385 210.344 128.51 210.438 128.665C210.532 128.821 210.584 128.998 210.584 129.18V160.92C210.584 162.39 208.341 162.944 206.678 162.944H206.64C204.844 162.936 202.449 162.388 202.449 160.92V123.973C202.445 123.708 202.337 123.456 202.149 123.269C201.961 123.083 201.705 122.981 201.44 122.985H200.89C200.815 122.985 200.742 122.993 200.669 123.01L190.281 125.288C190.06 125.334 189.86 125.455 189.716 125.63C189.571 125.805 189.493 126.024 189.491 126.251V126.476C189.491 126.656 189.543 126.835 189.637 126.989C189.731 127.143 189.868 127.27 190.029 127.35L191.915 128.304C192.076 128.387 192.213 128.51 192.307 128.667C192.401 128.823 192.453 129 192.453 129.182V160.921C192.453 162.382 191.83 162.759 190.321 162.938C190.079 162.965 189.854 163.078 189.691 163.259C189.527 163.44 189.433 163.674 189.429 163.918V164.132C189.429 164.262 189.458 164.393 189.51 164.514C189.562 164.635 189.637 164.745 189.731 164.837C189.825 164.929 189.937 165.001 190.058 165.051C190.179 165.099 190.31 165.124 190.442 165.122H222.597C222.727 165.122 222.858 165.099 222.981 165.051C223.102 165.003 223.214 164.929 223.308 164.837C223.402 164.745 223.477 164.635 223.529 164.514C223.581 164.393 223.608 164.264 223.61 164.132V163.918C223.606 163.674 223.514 163.44 223.348 163.259C223.185 163.078 222.96 162.965 222.718 162.938C221.207 162.759 220.586 162.382 220.586 160.921V153.499C220.586 153.44 220.599 153.382 220.622 153.326C220.645 153.273 220.68 153.223 220.722 153.18C220.765 153.138 220.815 153.107 220.87 153.084C220.926 153.061 220.984 153.052 221.043 153.052C221.111 153.052 221.178 153.069 221.239 153.1C221.301 153.13 221.353 153.175 221.395 153.228C223.118 155.497 226.981 160.57 226.981 160.57C229.255 163.728 231.362 165.983 234.896 165.983C239.053 165.983 241.168 163.743 244.092 159.018C244.371 158.567 244.217 158.013 243.734 157.727L243.73 157.721Z" fill="#1E3638"></path><path fill-rule="evenodd" clip-rule="evenodd" d="M101.53 153.524C100.677 145.305 103.35 138.723 106.578 138.723C107.868 138.723 108.867 139.717 109.2 141.235C110.088 145.314 107.549 152.417 102.929 154.34C102.681 154.443 102.401 154.443 102.153 154.341C101.903 154.24 101.705 154.042 101.601 153.794C101.565 153.707 101.542 153.617 101.53 153.524ZM158.488 138.888C158.49 138.757 158.467 138.627 158.421 138.506C158.374 138.384 158.301 138.273 158.211 138.179C158.121 138.085 158.013 138.01 157.894 137.956C157.775 137.904 157.646 137.875 157.515 137.873H157.494L153.446 137.827C153.221 137.827 153.004 137.75 152.827 137.612C152.65 137.473 152.527 137.277 152.473 137.06C151.27 131.695 150.783 126.626 153.082 126.626C154.826 126.626 156.55 129.007 156.02 132.214C155.937 132.714 156.166 133.294 157.215 133.294C157.215 133.294 162.98 132.864 162.98 129.138C162.98 126.168 158.555 124.373 154.686 124.373C145.847 124.373 143.127 130.042 142.517 136.923C142.49 137.17 142.373 137.398 142.187 137.564C142 137.729 141.762 137.817 141.514 137.815H133.027C132.896 137.817 132.767 137.794 132.644 137.744C132.521 137.694 132.412 137.623 132.318 137.533C132.223 137.442 132.148 137.333 132.097 137.212C132.045 137.091 132.018 136.962 132.016 136.831V131.12C132.012 130.857 131.904 130.605 131.718 130.42C131.529 130.236 131.276 130.134 131.012 130.136H130.841C130.67 130.136 130.501 130.18 130.351 130.261C130.201 130.343 130.074 130.463 129.982 130.607C127.914 133.846 124.45 137.046 120.409 138.6C120.226 138.665 120.067 138.784 119.95 138.94C119.832 139.096 119.765 139.282 119.752 139.476L119.744 139.632C119.736 139.895 119.832 140.151 120.013 140.345C120.194 140.537 120.442 140.651 120.705 140.66H122.016C122.147 140.66 122.276 140.683 122.397 140.732C122.518 140.78 122.629 140.853 122.721 140.943C122.816 141.033 122.891 141.143 122.941 141.264C122.993 141.385 123.019 141.514 123.021 141.645V151.481C123.021 155.975 117.574 160.56 110.417 160.56C107.453 160.56 104.208 159.997 102.993 157.844C102.589 157.136 102.858 156.908 104.014 156.715C115.396 154.924 119.159 148.446 117.898 142.842C116.955 138.621 112.306 136.633 106.772 136.633C96.2918 136.633 89.6867 145.945 91.9147 155.379C93.7543 163.178 100.98 165.906 106.945 165.906C112.251 165.906 118.116 163.642 121.472 159.57C122.456 158.376 122.706 158.767 122.806 159.793C123.227 164.162 126.833 165.906 130.703 165.906C135.453 165.906 137.66 163.476 139.163 161.169C140.213 159.562 138.471 158.682 137.589 159.476C136.966 160.037 136.087 161.039 134.424 161.039C133.027 161.039 132.433 160.41 132.239 159.52C132.104 158.892 132.05 158.159 132.104 156.902V141.65C132.104 141.52 132.133 141.391 132.185 141.27C132.237 141.149 132.312 141.041 132.406 140.949C132.5 140.856 132.61 140.785 132.733 140.737C132.856 140.689 132.985 140.664 133.115 140.666H141.468C141.729 140.662 141.983 140.762 142.171 140.943C142.36 141.124 142.469 141.374 142.477 141.635L142.529 161.402C142.529 162.357 141.268 163.463 141.268 163.966V164.18C141.268 164.311 141.297 164.441 141.349 164.562C141.4 164.683 141.475 164.793 141.57 164.883C141.664 164.976 141.775 165.047 141.896 165.097C142.018 165.147 142.148 165.17 142.281 165.168H154.614C154.882 165.172 155.139 165.07 155.331 164.885C155.524 164.701 155.635 164.447 155.643 164.18V163.974C155.643 163.469 155.133 162.994 154.614 162.994C153.315 162.994 152.74 161.833 152.74 160.97L152.775 154.824L152.938 141.647C152.938 141.516 152.967 141.387 153.019 141.266C153.071 141.147 153.146 141.037 153.238 140.945C153.332 140.853 153.442 140.782 153.563 140.733C153.684 140.685 153.815 140.66 153.944 140.662H157.446C157.704 140.666 157.952 140.57 158.14 140.393C158.328 140.216 158.442 139.974 158.455 139.717L158.48 138.884L158.488 138.888Z" fill="#1E3638"></path></svg>